<svg width="12" height="26" viewBox="0 0 12 26" fill="none" xmlns="http://www.w3.org/2000/svg">
<path d="M0 9.4502C1.57497 8.40021 5.77469 6.50963 9.97461 7.34961L9.91895 7.41016L10.1133 7.3916L7.62695 20.1934C7.51499 20.798 7.45898 21.2686 7.45898 21.6045C7.45903 22.0747 7.59364 22.4776 7.8623 22.8135C8.13108 23.1494 8.52295 23.3399 9.03809 23.3848C8.7917 24.1911 8.25449 24.8078 7.42578 25.2334C6.59707 25.659 5.68959 25.8711 4.7041 25.8711C3.5395 25.8711 2.59858 25.5803 1.88184 24.998C1.18745 24.3933 0.839844 23.5301 0.839844 22.4102C0.83995 21.3124 1.20919 18.9494 1.94824 15.3213L2.08301 14.6494L2.66895 11.627C2.19211 10.3435 1.35049 9.18019 0 9.4502ZM7.82812 0C8.8807 0 9.7323 0.234867 10.3818 0.705078C11.0313 1.17541 11.3564 1.83646 11.3564 2.6875C11.3564 3.5385 11.0095 4.19955 10.3154 4.66992C9.64347 5.14029 8.76945 5.37596 7.69434 5.37598C6.61916 5.37598 5.74523 5.15209 5.07324 4.7041C4.42365 4.23371 4.09863 3.58367 4.09863 2.75488C4.09866 1.8814 4.44635 1.20963 5.14062 0.739258C5.85731 0.246539 6.75315 7.21145e-05 7.82812 0Z" fill="#FFC296"/>
</svg>
